<svg xmlns="http://www.w3.org/2000/svg"
 width="40" height="40" viewBox="0 0 40 40"
 preserveAspectRatio="xMidYMid meet">

<g transform="translate(0,40) scale(0.1,-0.1)"
fill="#000000" stroke="none">
<path d="M32 320 c-22 -9 -23 -13 -20 -132 l3 -123 30 2 c76 6 106 3 131 -10
24 -13 32 -12 69 4 33 15 49 16 76 9 71 -21 69 -24 69 115 l0 125 -27 11 c-16
6 -50 8 -78 4 -65 -7 -97 -8 -170 -1 -33 3 -70 1 -83 -4z m133 -42 c24 -11 25
-15 25 -96 0 -83 0 -84 -22 -78 -13 3 -44 6 -70 6 l-48 0 0 84 c0 58 4 86 13
89 23 10 76 7 102 -5z m179 6 c13 -5 16 -23 16 -90 l0 -84 -54 0 c-30 0 -61
-3 -70 -6 -14 -5 -16 6 -16 80 0 80 2 87 23 96 26 10 79 13 101 4z"/>
<path d="M248 253 c-35 -9 -17 -20 32 -19 33 1 50 5 50 14 0 12 -45 15 -82 5z"/>
<path d="M235 199 c-4 -6 -5 -11 -4 -13 9 -6 99 7 99 15 0 13 -87 11 -95 -2z"/>
<path d="M253 160 c-35 -14 -28 -19 27 -17 28 1 48 6 47 12 -5 14 -47 16 -74
5z"/>
</g>
</svg>
