<svg xmlns="http://www.w3.org/2000/svg" width="40" height="40" viewBox="0 0 40 40">

<g transform="translate(0,40) scale(0.1,-0.1)" fill="#FFFFFF" stroke="none">
<path d="M160 370 c-25 -5 -61 -6 -80 -3 -31 6 -34 4 -22 -10 16 -19 52 -27
157 -37 44 -4 88 -10 98 -14 26 -12 22 20 -8 49 -26 27 -58 30 -145 15z"/>
<path d="M27 323 c-4 -3 -7 -19 -7 -35 0 -44 33 -54 128 -40 97 15 128 15 155
0 19 -10 1 -14 -118 -30 -77 -10 -148 -16 -158 -14 -23 6 -33 -19 -16 -40 9
-11 22 -14 41 -10 26 5 28 4 28 -30 0 -23 -11 -51 -30 -80 -39 -56 -19 -58 35
-5 l40 40 27 -26 c49 -47 86 0 68 84 -11 49 -9 59 13 50 15 -6 27 -50 27 -102
0 -25 8 -38 34 -59 27 -20 36 -23 45 -12 8 10 4 24 -18 57 -16 24 -31 59 -35
78 -5 29 -4 33 12 28 59 -19 60 -19 67 2 9 30 -31 79 -74 90 -20 5 -67 12
-106 16 -88 8 -147 23 -140 35 7 11 -8 14 -18 3z m143 -193 c0 -49 -1 -51 -27
-48 -44 5 -61 83 -20 91 47 9 47 9 47 -43z"/>
</g>
</svg>
