<?xml version="1.0" standalone="no"?>
<!DOCTYPE svg PUBLIC "-//W3C//DTD SVG 20010904//EN"
 "http://www.w3.org/TR/2001/REC-SVG-20010904/DTD/svg10.dtd">
<svg version="1.0" xmlns="http://www.w3.org/2000/svg"
 width="250.000000pt" height="250.000000pt" viewBox="0 0 250.000000 250.000000"
 preserveAspectRatio="xMidYMid meet">

<g transform="translate(0.000000,250.000000) scale(0.100000,-0.100000)"
fill="#000000" stroke="none">
<path d="M0 1250 l0 -1250 1250 0 1250 0 0 1250 0 1250 -1250 0 -1250 0 0
-1250z m2012 813 l178 -178 0 -787 0 -788 -788 0 -787 0 -178 178 -177 177 0
781 c0 429 3 784 7 787 3 4 358 7 787 7 l781 0 177 -177z"/>
<path d="M870 1270 l0 -430 75 0 75 0 2 298 3 299 209 -299 210 -298 73 0 73
0 0 430 0 430 -70 0 -70 0 -2 -302 -3 -303 -71 100 c-38 55 -134 191 -213 303
l-142 202 -75 0 -74 0 0 -430z"/>
</g>
</svg>
