<svg version="1.1" id="Layer_1" xmlns="http://www.w3.org/2000/svg" x="0px" y="0px"
     width="100%" viewBox="0 0 250 250" enable-background="new 0 0 250 250" xml:space="preserve">
<path fill="#080C4B" opacity="1.000000" stroke="none"
	d="
M173.000000,251.000000
	C115.333336,251.000000 58.166672,251.000000 1.000008,251.000000
	C1.000005,167.666672 1.000005,84.333351 1.000003,1.000019
	C84.333321,1.000013 167.666641,1.000013 250.999969,1.000006
	C250.999969,84.333313 250.999969,167.666626 250.999985,250.999969
	C225.166672,251.000000 199.333328,251.000000 173.000000,251.000000
M171.499756,220.390503
	C187.736023,220.390503 203.972290,220.390503 220.065826,220.390503
	C220.251678,219.263672 220.352020,218.939178 220.352127,218.614639
	C220.369431,167.808258 220.407455,117.001816 220.277863,66.195786
	C220.273148,64.347099 219.024719,62.107033 217.669708,60.719421
	C207.778137,50.589764 197.641037,40.699829 187.751343,30.568380
	C185.472076,28.233383 183.179016,27.317785 179.925751,27.324146
	C130.951645,27.419941 81.977280,27.390533 33.002972,27.390535
	C31.247410,27.390535 29.491850,27.390535 27.829176,27.390535
	C27.593931,28.610474 27.420891,29.089268 27.420719,29.568121
	C27.402357,80.374718 27.368790,131.181396 27.504696,181.987610
	C27.509598,183.819351 28.800503,186.028717 30.154661,187.414734
	C39.931896,197.422058 49.767651,207.379868 59.874409,217.050751
	C61.766766,218.861496 64.954910,220.235001 67.554604,220.250870
	C101.868652,220.460419 136.184418,220.390518 171.499756,220.390503
z"/>
<path fill="#FDFDFE" opacity="1.000000" stroke="none"
	d="
M170.999756,220.390518
	C136.184418,220.390518 101.868652,220.460419 67.554604,220.250870
	C64.954910,220.235001 61.766766,218.861496 59.874409,217.050751
	C49.767651,207.379868 39.931896,197.422058 30.154661,187.414734
	C28.800503,186.028717 27.509598,183.819351 27.504696,181.987610
	C27.368790,131.181396 27.402357,80.374718 27.420719,29.568121
	C27.420891,29.089268 27.593931,28.610474 27.829176,27.390535
	C29.491850,27.390535 31.247410,27.390535 33.002972,27.390535
	C81.977280,27.390533 130.951645,27.419941 179.925751,27.324146
	C183.179016,27.317785 185.472076,28.233383 187.751343,30.568380
	C197.641037,40.699829 207.778137,50.589764 217.669708,60.719421
	C219.024719,62.107033 220.273148,64.347099 220.277863,66.195786
	C220.407455,117.001816 220.369431,167.808258 220.352127,218.614639
	C220.352020,218.939178 220.251678,219.263672 220.065826,220.390503
	C203.972290,220.390503 187.736023,220.390503 170.999756,220.390518
M147.560150,80.882423
	C146.927917,82.281418 145.762665,83.674194 145.746262,85.080383
	C145.588882,98.569672 145.623642,112.061234 145.607239,125.552139
	C145.601456,130.316422 145.606323,135.080688 145.606323,141.303406
	C143.977890,139.226074 143.269592,138.402298 142.647873,137.517670
	C130.226074,119.842949 117.842522,102.141190 105.348923,84.517418
	C104.305389,83.045395 102.631248,81.234467 101.081970,81.058144
	C96.872299,80.579025 92.572273,80.893669 88.294189,80.893669
	C88.294189,109.875496 88.294189,138.270081 88.294189,166.771072
	C93.133698,166.771072 97.715714,166.771072 102.838425,166.771072
	C102.838425,147.012863 102.838425,127.478081 102.838425,106.476646
	C104.621658,108.974762 105.545258,110.249817 106.449608,111.538383
	C118.668739,128.949036 130.859970,146.379425 143.151794,163.738586
	C144.101685,165.080048 145.677017,166.712036 147.094772,166.851013
	C151.309860,167.264191 155.591446,166.999100 159.735092,166.999100
	C159.735092,137.950348 159.735092,109.544548 159.735092,80.874847
	C155.821854,80.874847 152.183319,80.874847 147.560150,80.882423
z"/>
<path fill="#0A0E4C" opacity="1.000000" stroke="none"
	d="
M148.052460,80.878632
	C152.183319,80.874847 155.821854,80.874847 159.735092,80.874847
	C159.735092,109.544548 159.735092,137.950348 159.735092,166.999100
	C155.591446,166.999100 151.309860,167.264191 147.094772,166.851013
	C145.677017,166.712036 144.101685,165.080048 143.151794,163.738586
	C130.859970,146.379425 118.668739,128.949036 106.449608,111.538383
	C105.545258,110.249817 104.621658,108.974762 102.838425,106.476646
	C102.838425,127.478081 102.838425,147.012863 102.838425,166.771072
	C97.715714,166.771072 93.133698,166.771072 88.294189,166.771072
	C88.294189,138.270081 88.294189,109.875496 88.294189,80.893669
	C92.572273,80.893669 96.872299,80.579025 101.081970,81.058144
	C102.631248,81.234467 104.305389,83.045395 105.348923,84.517418
	C117.842522,102.141190 130.226074,119.842949 142.647873,137.517670
	C143.269592,138.402298 143.977890,139.226074 145.606323,141.303406
	C145.606323,135.080688 145.601456,130.316422 145.607239,125.552139
	C145.623642,112.061234 145.588882,98.569672 145.746262,85.080383
	C145.762665,83.674194 146.927917,82.281418 148.052460,80.878632
z"/>
</svg>